<?xml version="1.0" encoding="UTF-8" standalone="no"?>
<!-- Created with Inkscape (http://www.inkscape.org/) -->

<svg
   width="1464"
   height="478"
   viewBox="0 0 387.34999 126.47083"
   version="1.1"
   id="svg1"
   xml:space="preserve"
   inkscape:version="1.4.2 (ebf0e940d0, 2025-05-08)"
   sodipodi:docname="banner.svg"
   inkscape:export-filename="sug.png"
   inkscape:export-xdpi="96"
   inkscape:export-ydpi="96"
   xmlns:inkscape="http://www.inkscape.org/namespaces/inkscape"
   xmlns:sodipodi="http://sodipodi.sourceforge.net/DTD/sodipodi-0.dtd"
   xmlns="http://www.w3.org/2000/svg"
   xmlns:svg="http://www.w3.org/2000/svg"><sodipodi:namedview
     id="namedview1"
     pagecolor="#ffffff"
     bordercolor="#000000"
     borderopacity="0.25"
     inkscape:showpageshadow="2"
     inkscape:pageopacity="0.0"
     inkscape:pagecheckerboard="0"
     inkscape:deskcolor="#d1d1d1"
     inkscape:document-units="px"
     inkscape:zoom="0.91642203"
     inkscape:cx="618.16497"
     inkscape:cy="63.835218"
     inkscape:window-width="2439"
     inkscape:window-height="1549"
     inkscape:window-x="113"
     inkscape:window-y="43"
     inkscape:window-maximized="1"
     inkscape:current-layer="layer1" /><defs
     id="defs1" /><g
     inkscape:label="Layer 1"
     inkscape:groupmode="layer"
     id="layer1">
    
    
    
    
    
    
    
    
    
    
    
    
    
    
    
    
    
    
    
    
    
    
    
    
    
    
    
    
    
    
    
<rect
   style="fill:#fefefe;fill-opacity:1;stroke-width:0;stroke-linejoin:round;stroke-opacity:0.941176"
   id="rect7"
   width="387.35001"
   height="126.47083"
   x="0"
   y="0" /><text
   xml:space="preserve"
   style="font-style:normal;font-variant:normal;font-weight:normal;font-stretch:normal;font-size:38.4542px;font-family:'Adwaita Sans';-inkscape-font-specification:'Adwaita Sans';text-align:start;writing-mode:lr-tb;direction:ltr;text-anchor:start;fill:#22386a;fill-opacity:1;stroke-width:0;stroke-linejoin:round;stroke-opacity:0.941176"
   x="142.11694"
   y="75.988007"
   id="text1"><tspan
     sodipodi:role="line"
     id="tspan1"
     style="font-style:normal;font-variant:normal;font-weight:600;font-stretch:normal;font-size:38.4542px;font-family:'Adwaita Sans';-inkscape-font-specification:'Adwaita Sans Semi-Bold';fill:#22386a;fill-opacity:1;stroke-width:0"
     x="142.11694"
     y="75.988007">projet<tspan
   style="fill:#000000;fill-opacity:1;stroke-width:0"
   id="tspan6">.</tspan><tspan
   style="font-style:normal;font-variant:normal;font-weight:normal;font-stretch:normal;font-family:'Adwaita Sans';-inkscape-font-specification:'Adwaita Sans';fill:#bd2b38;fill-opacity:1;stroke-width:0"
   id="tspan5">nvim</tspan></tspan></text><path
   d="m 78.680183,8.2425392 c -0.0453,0.120903 -0.10579,1.0276774 -0.15113,2.0251288 -0.0302,0.997452 -0.13601,2.418065 -0.21158,3.173711 l -0.166237,1.360162 -0.861437,0.755645 c -0.816084,0.72542 -0.861424,0.800985 -0.770744,1.314824 0.0605,0.453387 0.0151,0.589403 -0.28715,0.861435 -0.332477,0.287146 -0.362707,0.392936 -0.272027,1.19392 0.0756,0.604517 0.21158,0.982339 0.453377,1.254372 0.347597,0.36271 0.362707,0.453387 0.362707,3.022582 0,2.463404 -0.0756,4.352518 -0.453377,12.075215 -0.362707,7.057729 -0.982334,15.037345 -1.511281,19.193396 -0.0907,0.619629 -0.317367,2.554081 -0.544067,4.307179 -0.211577,1.737985 -0.544057,4.15605 -0.755634,5.34997 -0.19647,1.209033 -0.36271,2.312275 -0.36271,2.463404 0,0.25692 0.28714,0.272033 5.66731,0.272033 h 5.667307 v -0.347597 c 0,-0.181355 -0.10579,-0.906775 -0.22669,-1.617082 -0.12091,-0.695193 -0.332487,-1.949565 -0.453387,-2.795888 -0.12091,-0.83121 -0.317367,-2.161146 -0.438277,-2.947017 -0.332477,-2.115808 -0.952104,-7.964504 -1.224134,-11.259118 -0.12091,-1.586856 -0.287147,-3.657324 -0.377827,-4.609438 -0.13601,-1.617081 -0.22669,-3.355066 -0.604507,-10.881295 -0.0756,-1.617081 -0.19647,-4.957034 -0.241807,-7.405326 l -0.10579,-4.458308 0.408047,-0.36271 c 0.347597,-0.317371 0.392937,-0.483613 0.392937,-1.314823 0,-0.800985 -0.0453,-0.98234 -0.302257,-1.118356 -0.25692,-0.136016 -0.28715,-0.256919 -0.21158,-0.755645 0.0907,-0.528952 0.0453,-0.634742 -0.317367,-0.937001 -1.405494,-1.178807 -1.314824,-1.04279 -1.450831,-2.251823 -0.0756,-0.61963 -0.18136,-2.100695 -0.2267,-3.309727 -0.0907,-2.0100171 -0.2418,-2.8110005 -0.423157,-2.2518228 z"
   id="path1"
   style="fill:#000000;stroke:none;stroke-width:0.0151129" /><path
   d="m 82.171242,21.617463 c -0.10579,0.105791 0.0151,6.9066 0.13602,7.707584 l 0.0605,0.468501 1.919328,0.10579 c 5.123253,0.287145 9.052579,1.874001 12.377401,4.972147 1.254371,1.178807 1.314821,1.118356 0.725414,-0.619629 -1.586841,-4.609438 -5.12324,-8.659697 -9.475736,-10.851069 -1.601961,-0.816097 -2.523845,-1.163694 -4.095576,-1.571743 -1.299701,-0.332484 -1.496171,-0.347597 -1.647301,-0.211581 z"
   id="path2"
   style="fill:#22386a;fill-opacity:1;stroke:none;stroke-width:0.0151129" /><path
   d="m 91.934128,21.783705 c 0.468497,0.120904 2.977232,1.405501 4.261816,2.176259 2.554075,1.526404 5.561526,4.458309 7.571546,7.314649 3.26439,4.700115 5.10817,11.319569 4.83613,17.455411 -0.37782,9.03752 -4.27695,15.792991 -11.274212,19.540992 -2.327378,1.254372 -4.700086,1.889114 -8.251605,2.236711 -1.390371,0.136016 -1.919328,0.241807 -1.994888,0.408049 -0.16624,0.453387 1.526391,6.392761 2.644745,9.279326 0.453387,1.178807 0.392927,1.148582 2.569175,0.876549 5.0628,-0.649855 9.067705,-2.146033 13.284205,-4.972147 3.00747,-2.010017 5.56155,-4.609438 7.76804,-7.934278 4.23161,-6.347422 5.80335,-15.022232 4.15605,-23.107639 -1.17881,-5.758019 -4.00492,-10.881296 -8.32722,-15.067572 -3.56664,-3.445743 -6.87637,-5.45576 -11.606695,-7.027503 -1.949558,-0.649855 -4.639633,-1.284597 -5.38017,-1.269484 -0.287137,0.01511 -0.408047,0.04534 -0.256917,0.09068 z"
   id="path3-6"
   style="fill:#bd2b38;fill-opacity:1;stroke:none;stroke-width:0.0151129" /><path
   d="m 73.012873,22.43356 c -3.521289,0.906775 -5.999794,1.934453 -8.750319,3.611986 -5.561544,3.400405 -10.276772,8.825939 -12.815741,14.7502 -1.088129,2.538969 -1.677533,4.337405 -2.100694,6.392761 -0.680081,3.309727 -0.83121,5.788245 -0.982339,16.352169 -0.181355,13.027328 -0.196468,47.152264 -0.01511,47.152264 0.120903,0 1.919339,-1.61708 2.96213,-2.64476 2.886566,-2.87146 7.858713,-10.443005 9.18865,-13.979426 0.241806,-0.61963 0.272032,-2.418066 0.302258,-22.896059 l 0.03023,-22.215978 0.347596,-1.526403 c 1.163702,-5.259293 3.430617,-9.082859 7.359956,-12.377474 1.541511,-1.29971 3.052792,-2.23671 5.1837,-3.188824 l 1.465941,-0.664968 0.0907,-2.448291 c 0.0604,-1.360162 0.1209,-3.415518 0.15113,-4.579212 l 0.0605,-2.115807 -0.377827,-0.03023 c -0.21158,-0.03023 -1.148574,0.166242 -2.100681,0.408048 z"
   id="path4"
   style="fill:#22386a;fill-opacity:1;stroke:none;stroke-width:0.0151129" /><path
   d="m 71.652722,67.878081 c -0.498727,0.423161 -0.483617,1.586855 0.0302,2.13092 l 0.392937,0.408049 -0.362707,1.586855 c -0.438267,1.979791 -1.526391,5.727793 -2.312268,8.009842 -1.224131,3.566647 -1.994888,5.652229 -2.327365,6.33231 l -0.3476,0.695194 -1.057894,0.03023 c -0.574287,0.03023 -1.284591,0.07556 -1.541511,0.120904 -0.513837,0.09068 -0.664964,0.423161 -0.272027,0.589403 0.317367,0.120904 27.565784,0.09068 28.941055,-0.03023 0.861434,-0.07556 1.133464,-0.166242 1.133464,-0.332484 0,-0.181355 -0.287147,-0.241806 -1.481061,-0.272032 -1.329924,-0.03023 -1.481051,-0.07556 -1.677521,-0.377823 -1.042784,-1.617081 -5.07791,-14.311926 -5.07791,-15.959233 0,-0.241806 0.136017,-0.604516 0.302257,-0.816097 0.362707,-0.4685 0.377817,-1.057904 0.0302,-1.76821 l -0.25692,-0.528952 -6.891451,-0.04534 c -6.392724,-0.03023 -6.921671,-0.01511 -7.223928,0.226694 z m 9.596646,6.468325 c 0.10579,0.03023 0.22669,0.423162 0.287137,0.861436 0.27203,2.176259 1.722861,9.536246 2.191358,11.138215 0.0756,0.287145 0.12091,0.544065 0.0907,0.589403 -0.0907,0.07556 -9.793113,0.03023 -9.929123,-0.06045 -0.0604,-0.03023 -0.0302,-0.332484 0.0907,-0.649855 0.332477,-0.952114 1.239241,-5.410422 2.130908,-10.443021 0.151127,-0.785872 0.302247,-1.465953 0.377817,-1.511291 0.1209,-0.09068 4.503623,-0.01511 4.760543,0.07556 z"
   id="path5"
   style="fill:#000000;stroke:none;stroke-width:0.0151129" /><path
   d="m 63.824277,89.021042 c -0.24181,0.10579 -0.25692,1.4055 -0.0151,2.191372 0.15113,0.544065 0.1209,0.664968 -0.347597,1.601968 -2.070462,4.125826 -5.924254,10.216308 -8.825933,13.949198 -2.538968,3.26439 -4.715227,5.27441 -6.604341,6.12073 -0.559178,0.24181 -1.027678,0.49872 -1.027678,0.55918 0,0.2418 0.967226,0.27203 7.707584,0.2418 l 7.027503,-0.0453 0.241811,-1.13346 c 0.785867,-3.77823 2.342488,-6.60435 5.032563,-9.18865 2.599415,-2.49363 5.09303,-3.717777 9.279276,-4.548981 0.438277,-0.0907 1.601961,-0.16624 2.584295,-0.16624 4.745423,0 9.128149,1.813541 12.316951,5.108151 1.435721,1.46595 2.130908,2.46341 3.052792,4.33741 0.725417,1.49618 1.360154,3.47597 1.647301,5.09305 l 0.0907,0.57429 h 7.239066 c 3.97469,0 7.32976,-0.0453 7.46577,-0.0907 0.28715,-0.10579 0.31738,-0.36271 0.0605,-0.36271 -0.0907,0 -0.72542,-0.27203 -1.39039,-0.60451 -2.20649,-1.08813 -4.32229,-3.20394 -7.22397,-7.2542 -2.463407,-3.44575 -5.395289,-8.100502 -7.25417,-11.485795 l -1.042784,-1.889114 0.10579,-1.481065 0.10579,-1.465953 H 79.783497 c -7.843555,0 -14.598989,-0.03023 -15.022146,-0.07556 -0.408047,-0.03023 -0.846314,-0.03023 -0.936994,0.01511 z"
   id="path6"
   style="fill:#000000;stroke:none;stroke-width:0.0151129" /><path
   style="fill:#22386a;fill-opacity:1;stroke-width:0;stroke-linejoin:round;stroke-opacity:0.941176"
   d="m 82.171292,21.617463 9.762836,0.166242"
   id="path7" /></g></svg>
